#!OML:ASF E:\acrobat2\Project_11_07_03\Capture day 1\Session 1\Acrobat.ASF
:FULLY-SPECIFIED
:DEGREES
1
root 8.28971 18.4147 0.0975098 4.81791 -59.6506 0.0952759
lowerback -4.95941 3.37914 4.07693
upperback -0.877336 4.34893 -3.15234
thorax 2.42201 2.21625 -5.23516
lowerneck -1.63333 3.95607 0.238376
upperneck 9.79274 5.2414 0.0162603
head 3.4432 2.58082 0.145312
rclavicle -2.1096e-014 -7.95139e-016
rhumerus -42.4596 -15.4495 -78.307
rradius 23.0722
rwrist 2.627
rhand -7.43751 -38.9242
rfingers 7.12502
rthumb 18.45 -68.0693
lclavicle -2.1096e-014 -7.95139e-016
lhumerus -26.7578 14.8235 74.8559
lradius 19.6301
lwrist 6.19003
lhand -31.7227 -12.7092
lfingers 7.12502
lthumb -4.981 17.2123
rfemur 8.70878 15.6129 16.9092
rtibia -5.37154
rfoot -14.1218 -10.6521
rtoes 8.6667
lfemur 0.457307 -1.05603 -9.01142
ltibia 0.636161
lfoot -6.35683 3.12913
ltoes 29.2156
2
root 8.32898 18.3736 0.0894132 4.09372 -59.8447 1.01273
lowerback -4.9664 3.36527 3.60836
upperback -0.877019 4.35613 -3.29925
thorax 2.40391 2.21506 -5.12313
lowerneck -2.40921 4.13607 0.455255
upperneck 9.74517 5.45702 0.234223
head 3.57557 2.70564 0.205923
rclavicle -2.13694e-015 -2.46493e-014
rhumerus -42.2303 -12.2883 -80.2847
rradius 24.3957
rwrist 2.65782
rhand -0.0867992 -36.85
rfingers 7.12502
rthumb 25.5072 -65.1627
lclavicle -2.13694e-015 -2.46493e-014
lhumerus -26.898 13.4528 75.5764
lradius 21.9465
lwrist 9.22757
lhand -27.455 -12.3975
lfingers 7.12502
lthumb -0.8595 17.5805
rfemur 8.43897 14.7286 16.0591
rtibia -5.02973
rfoot -15.1267 -12.998
rtoes 5.3872
lfemur 1.21124 -3.05413 -9.93236
ltibia -0.99789
lfoot -7.61841 4.69822
ltoes -3.00373
3
root 8.36819 18.3104 0.0760207 4.49685 -59.8479 0.50438
lowerback -4.81692 3.35768 3.7385
upperback -0.862801 4.34168 -3.17354
thorax 2.33297 2.20769 -5.07442
lowerneck -2.75356 4.27081 0.603148
upperneck 9.14994 5.62147 0.385357
head 3.43406 2.80306 0.235146
rclavicle 4.23287e-014 -1.35174e-014
rhumerus -42.3195 -9.0023 -82.0809
rradius 26.158
rwrist 2.62747
rhand 2.44661 -35.501
rfingers 7.12502
rthumb 27.9316 -63.4435
lclavicle 4.23287e-014 -1.35174e-014
lhumerus -27.1816 10.9152 76.6808
lradius 24.7338
lwrist 13.3612
lhand -23.4362 -12.7813
lfingers 7.12502
lthumb 3.02186 17.1771
rfemur 8.48769 14.496 16.3696
rtibia -4.8238
rfoot -16.4341 -16.1481
rtoes 2.6354
lfemur 1.99897 -4.92385 -9.986
ltibia -2.51987
lfoot -9.16419 6.21919
ltoes -11.0587
4
root 8.40669 18.2222 0.054723 4.28818 -59.7836 0.625452
lowerback -4.64981 3.29765 3.40884
upperback -0.809418 4.27977 -3.02752
thorax 2.25181 2.17255 -4.74891
lowerneck -2.74267 4.33373 1.06134
upperneck 8.22323 5.72643 -0.10475
head 3.14444 2.85676 -0.011738
rclavicle 3.7943e-014 -8.74653e-015
rhumerus -42.5635 -5.42195 -83.8412
rradius 28.2795
rwrist 1.92148
rhand 3.65068 -35.186
rfingers 7.12502
rthumb 29.0821 -62.9356
lclavicle 3.7943e-014 -8.74653e-015
lhumerus -27.7016 7.75602 78.1196
lradius 27.8522
lwrist 17.7833
lhand -19.7421 -13.9363
lfingers 7.12502
lthumb 6.58883 15.9412
rfemur 8.84633 14.709 16.5065
rtibia -4.88623
rfoot -17.9882 -19.8076
rtoes 0.60241
lfemur 2.63362 -6.07101 -10.3315
ltibia -3.68231
lfoot -10.1603 6.86048
ltoes -2.45766
5
root 8.44419 18.1204 0.0251181 3.21091 -59.7046 1.82645
lowerback -4.58516 3.20072 2.47088
upperback -0.743925 4.19556 -2.99942
thorax 2.20443 2.12152 -4.20003
lowerneck -2.44333 4.40977 1.8407
upperneck 7.14328 5.86534 -1.10087
head 2.78619 2.91975 -0.479002
rclavicle -2.43884e-014 -2.3059e-014
rhumerus -42.6881 -2.47726 -85.2028
rradius 30.1595
rwrist 1.4588
rhand 3.35736 -35.9331
rfingers 7.12502
rthumb 28.802 -63.7307
lclavicle -2.43884e-014 -2.3059e-014
lhumerus -28.2892 5.06692 79.3836
lradius 30.5156
lwrist 20.23
lhand -15.5922 -16.221
lfingers 7.12502
lthumb 10.5935 13.492
rfemur 9.15155 15.2448 16.1999
rtibia -4.75752
rfoot -19.5751 -23.3904
rtoes -1.0969
lfemur 3.05872 -7.21199 -11.2423
ltibia -4.63074
lfoot -11.5825 6.62373
ltoes 25.5065
6
root 8.47931 18.0221 -0.0177946 2.08891 -59.4035 2.99877
lowerback -4.39225 3.10332 1.54925
upperback -0.632032 4.1121 -3.0725
thorax 2.14455 2.07196 -3.77177
lowerneck -1.96033 4.45198 2.88776
upperneck 5.92352 5.94097 -2.10339
head 2.36929 2.96003 -0.997368
rclavicle 4.12105e-014 -2.50469e-014
rhumerus -42.4769 -0.710266 -86.2662
rradius 31.337
rwrist 1.2906
rhand 1.12918 -37.1215
rfingers 7.12502
rthumb 26.6715 -65.2624
lclavicle 4.12105e-014 -2.50469e-014
lhumerus -28.5445 2.78654 80.1019
lradius 33.4796
lwrist 24.1796
lhand -7.95106 -15.8717
lfingers 7.12502
lthumb 17.9559 13.3194
rfemur 9.5297 16.5672 16.3923
rtibia -3.77861
rfoot -23.7543 -30.5571
rtoes -1.97392
lfemur 3.32109 -7.57654 -11.837
ltibia -5.21901
lfoot -11.337 6.75283
ltoes 24.1586
7
root 8.50805 17.9815 -0.0809698 0.363604 -58.7414 4.3577
lowerback -3.72974 2.68417 0.192757
upperback -0.379515 3.60973 -2.97955
thorax 1.90351 1.80857 -2.97524
lowerneck -1.33787 4.64633 3.57092
upperneck 4.83667 6.2283 -3.00347
head 1.97305 3.10217 -1.41659
rclavicle 7.55382e-015 -8.74653e-015
rhumerus -41.4983 0.65588 -87.0501
rradius 31.1948
rwrist 1.69459
rhand -1.81317 -38.3672
rfingers 7.12502
rthumb 23.8526 -66.9062
lclavicle 7.55382e-015 -8.74653e-015
lhumerus -29.1286 -1.63497 82.0119
lradius 35.8404
lwrist 24.0571
lhand -8.14822 -15.7488
lfingers 7.12502
lthumb 17.7662 13.4596
rfemur 10.667 17.1819 16.1538
rtibia -4.32684
rfoot -26.1951 -30.1003
rtoes 6.50233
lfemur 3.30125 -5.04377 -11.9813
ltibia -4.69398
lfoot -8.97149 4.12244
ltoes 23.6946
8
root 8.52667 18 -0.125869 -0.816487 -58.0592 5.4821
lowerback -3.68759 2.23379 -0.887891
upperback -0.150381 3.05575 -2.95621
thorax 2.02696 1.52211 -2.37454
lowerneck -0.534964 4.85503 4.06777
upperneck 3.71717 6.52952 -3.6702
head 1.52971 3.25728 -1.73733
rclavicle -3.12589e-014 1.82882e-014
rhumerus -39.7683 0.432455 -87.112
rradius 29.4251
rwrist 3.32325
rhand -4.56122 -37.2342
rfingers 7.12502
rthumb 21.2149 -66.0932
lclavicle -3.12589e-014 1.82882e-014
lhumerus -29.4058 -5.88616 83.5666
lradius 36.7426
lwrist 23.4961
lhand -8.55414 -17.0831
lfingers 7.12502
lthumb 17.3756 12.1603
rfemur 11.251 17.3169 15.6125
rtibia -4.69917
rfoot -27.8494 -29.3821
rtoes 12.5985
lfemur 2.62408 -2.93561 -12.1604
ltibia -3.65846
lfoot -6.96966 1.63827
ltoes 26.8886
9
root 8.54584 18.049 -0.14331 -0.771174 -57.5599 5.30573
lowerback -3.99038 1.88453 -0.84202
upperback -0.018999 2.59912 -2.86707
thorax 2.3131 1.29506 -2.32135
lowerneck 0.19308 5.08784 3.56348
upperneck 3.34906 6.84138 -3.06108
head 1.25151 3.42083 -1.47096
rclavicle -7.22955e-014 3.10104e-014
rhumerus -37.9513 -2.05649 -86.0182
rradius 26.8086
rwrist 6.81341
rhand -6.74518 -36.3492
rfingers 7.12502
rthumb 19.1159 -65.4298
lclavicle -7.22955e-014 3.10104e-014
lhumerus -29.4677 -9.60138 84.9582
lradius 36.0361
lwrist 21.7836
lhand -9.58203 -19.0708
lfingers 7.12502
lthumb 16.3861 10.257
rfemur 11.0406 16.5624 15.4335
rtibia -4.16968
rfoot -28.2967 -28.1928
rtoes 15.0446
lfemur 2.08719 -2.59666 -12.0193
ltibia -3.00429
lfoot -6.33983 0.963957
ltoes 28.1134
10
root 8.57264 18.0904 -0.150545 0.908054 -57.1298 3.42905
lowerback -4.45513 1.69814 0.476347
upperback -0.0301341 2.29399 -2.6295
thorax 2.59364 1.16074 -2.82195
lowerneck 0.510237 5.1707 2.61845
upperneck 3.80205 6.93108 -1.86245
head 1.25363 3.46854 -0.936681
rclavicle 1.10052e-013 -5.96354e-015
rhumerus -36.5196 -6.92974 -83.7755
rradius 24.1733
rwrist 11.717
rhand -8.83901 -35.8814
rfingers 7.12502
rthumb 17.1014 -65.1487
lclavicle 1.10052e-013 -5.96354e-015
lhumerus -29.1882 -12.5199 86.1284
lradius 34.1234
lwrist 18.5427
lhand -10.1317 -20.5409
lfingers 7.12502
lthumb 15.8568 8.82975
rfemur 10.1915 15.1284 16.1311
rtibia -2.97096
rfoot -29.2436 -25.5916
rtoes 21.1437
lfemur 1.50259 -2.74271 -10.9004
ltibia -2.56554
lfoot -6.41477 0.951106
ltoes 28.1608
